<?xml version="1.0" encoding="UTF-8" standalone="no"?><svg xmlns="http://www.w3.org/2000/svg" xmlns:xlink="http://www.w3.org/1999/xlink" contentStyleType="text/css" height="966px" preserveAspectRatio="none" style="width:1080px;height:966px;background:#FFFFFF;" version="1.1" viewBox="0 0 1080 966" width="1080px" zoomAndPan="magnify"><defs/><g><rect height="26.2969" style="stroke:#00000000;stroke-width:1.0;fill:none;" width="224" x="421" y="5"/><text fill="#000000" font-family="sans-serif" font-size="14" font-weight="bold" lengthAdjust="spacing" textLength="214" x="426" y="22.9951">Архитектура приложения</text><!--MD5=[2417afb9e5a60522b6f11026917cccf3]
cluster Хранилище--><g id="cluster_Хранилище"><rect height="115" rx="2.5" ry="2.5" style="stroke:#181818;stroke-width:1.0;fill:none;" width="472" x="599" y="44.2969"/><text fill="#000000" font-family="sans-serif" font-size="14" font-weight="bold" lengthAdjust="spacing" textLength="95" x="787.5" y="59.292">Хранилище</text></g><!--MD5=[376759ce94f362e54059b3a489f1c442]
cluster Генерация--><g id="cluster_Генерация"><rect height="119" rx="2.5" ry="2.5" style="stroke:#181818;stroke-width:1.0;fill:none;" width="644" x="417" y="666.7969"/><text fill="#000000" font-family="sans-serif" font-size="14" font-weight="bold" lengthAdjust="spacing" textLength="86" x="696" y="681.792">Генерация</text></g><!--MD5=[a88ddcf031d6899364c610b18a25be23]
cluster Проверка--><g id="cluster_Проверка"><rect height="111" rx="2.5" ry="2.5" style="stroke:#181818;stroke-width:1.0;fill:none;" width="1044" x="7" y="849.7969"/><text fill="#000000" font-family="sans-serif" font-size="14" font-weight="bold" lengthAdjust="spacing" textLength="78" x="490" y="864.792">Проверка</text></g><g id="elem_Хранилище шаблонов"><ellipse cx="715.9278" cy="120.7824" fill="#F1F1F1" rx="100.4278" ry="22.4856" style="stroke:#181818;stroke-width:0.5;"/><text fill="#000000" font-family="sans-serif" font-size="14" lengthAdjust="spacing" textLength="165" x="633.4278" y="123.6291">Хранилище шаблонов</text></g><g id="elem_Хранилище программ"><ellipse cx="952.8371" cy="120.9643" fill="#F1F1F1" rx="101.3371" ry="22.6674" style="stroke:#181818;stroke-width:0.5;"/><text fill="#000000" font-family="sans-serif" font-size="14" lengthAdjust="spacing" textLength="167" x="869.3371" y="123.811">Хранилище программ</text></g><g id="elem_Генератор DSL"><ellipse cx="511.1551" cy="745.3279" fill="#F1F1F1" rx="78.1551" ry="18.031" style="stroke:#181818;stroke-width:0.5;"/><text fill="#000000" font-family="sans-serif" font-size="14" lengthAdjust="spacing" textLength="114" x="451.7659" y="748.9134">Генератор DSL</text></g><g id="elem_Генератор кода"><ellipse cx="705.9455" cy="745.486" fill="#F1F1F1" rx="81.4455" ry="18.6891" style="stroke:#181818;stroke-width:0.5;"/><text fill="#000000" font-family="sans-serif" font-size="14" lengthAdjust="spacing" textLength="122" x="643.8109" y="748.7058">Генератор кода</text></g><g id="elem_Генератор изображений"><ellipse cx="933.9811" cy="745.3931" fill="#F1F1F1" rx="110.9811" ry="24.5962" style="stroke:#181818;stroke-width:0.5;"/><text fill="#000000" font-family="sans-serif" font-size="14" lengthAdjust="spacing" textLength="188" x="839.9811" y="748.2398">Генератор изображений</text></g><g id="elem_Система проверки"><ellipse cx="405.1144" cy="924.2198" fill="#F1F1F1" rx="90.1144" ry="20.4229" style="stroke:#181818;stroke-width:0.5;"/><text fill="#000000" font-family="sans-serif" font-size="14" lengthAdjust="spacing" textLength="142" x="334.1144" y="927.0664">Система проверки</text></g><g id="elem_Компилятор"><ellipse cx="676.9333" cy="924.2835" fill="#F1F1F1" rx="70.4333" ry="16.4867" style="stroke:#181818;stroke-width:0.5;"/><text fill="#000000" font-family="sans-serif" font-size="14" lengthAdjust="spacing" textLength="94" x="626.9333" y="928.0311">Компилятор</text></g><g id="elem_Скрипт запуска"><ellipse cx="954.7839" cy="924.1536" fill="#F1F1F1" rx="79.7839" ry="18.3568" style="stroke:#181818;stroke-width:0.5;"/><text fill="#000000" font-family="sans-serif" font-size="14" lengthAdjust="spacing" textLength="118" x="894.0356" y="927.5582">Скрипт запуска</text></g><g id="elem_Верификация"><ellipse cx="98.1066" cy="924.1182" fill="#F1F1F1" rx="74.6066" ry="17.3213" style="stroke:#181818;stroke-width:0.5;"/><text fill="#000000" font-family="sans-serif" font-size="14" lengthAdjust="spacing" textLength="105" x="42.6066" y="927.8658">Верификация</text></g><!--MD5=[fee662a292a0353a69bd162820bae93b]
entity User--><g id="elem_User"><ellipse cx="527" cy="91.2969" fill="#F1F1F1" rx="8" ry="8" style="stroke:#181818;stroke-width:0.5;"/><path d="M527,99.2969 L527,126.2969 M514,107.2969 L540,107.2969 M527,126.2969 L514,141.2969 M527,126.2969 L540,141.2969 " fill="none" style="stroke:#181818;stroke-width:0.5;"/><text fill="#000000" font-family="sans-serif" font-size="14" lengthAdjust="spacing" textLength="107" x="473.5" y="155.792">Пользователь</text></g><g id="elem_Web UI"><ellipse cx="272.8761" cy="120.9613" fill="#F1F1F1" rx="47.3761" ry="14.6644" style="stroke:#181818;stroke-width:0.5;"/><text fill="#000000" font-family="sans-serif" font-size="14" lengthAdjust="spacing" textLength="50" x="244.8761" y="124.7088">Web UI</text></g><g id="elem_Server"><ellipse cx="599.1374" cy="404.436" fill="#F1F1F1" rx="45.1374" ry="14.6391" style="stroke:#181818;stroke-width:0.5;"/><text fill="#000000" font-family="sans-serif" font-size="14" lengthAdjust="spacing" textLength="47" x="572.6374" y="408.1836">Server</text></g><!--MD5=[9239898c0fc96cdbb61e0ec2d3da7772]
reverse link Web UI to User--><g id="link_Web UI_User"><path d="M303.709,134.9759 C322.424,142.8269 347.077,151.7879 370,155.7969 C393.641,159.9319 400.321,159.7099 424,155.7969 C440.397,153.0869 457.692,148.1049 473.331,142.7319 " fill="none" id="Web UI-backto-User" style="stroke:#181818;stroke-width:1.0;"/><polygon fill="#181818" points="299.083,133.0069,305.7986,140.2111,303.6839,134.9644,308.9306,132.8497,299.083,133.0069" style="stroke:#181818;stroke-width:1.0;"/><text fill="#000000" font-family="sans-serif" font-size="13" lengthAdjust="spacing" textLength="33" x="380.5" y="136.8638">Ввод</text><text fill="#000000" font-family="sans-serif" font-size="13" lengthAdjust="spacing" textLength="52" x="371" y="151.9966">данных</text></g><!--MD5=[e12c657bfa306dd9a5a224d5fc5fc4db]
link Web UI to User--><g id="link_Web UI_User"><path d="M320.775,120.7969 C362.564,120.7969 423.407,120.7969 468.181,120.7969 " fill="none" id="Web UI-to-User" style="stroke:#181818;stroke-width:1.0;stroke-dasharray:7.0,7.0;"/><polygon fill="#181818" points="473.284,120.7969,464.284,116.7969,468.284,120.7969,464.284,124.7969,473.284,120.7969" style="stroke:#181818;stroke-width:1.0;"/><text fill="#000000" font-family="sans-serif" font-size="13" lengthAdjust="spacing" textLength="95" x="349.5" y="98.8638">Изображение/</text><text fill="#000000" font-family="sans-serif" font-size="13" lengthAdjust="spacing" textLength="116" x="339" y="113.9966">текст программы</text></g><!--MD5=[05cb1c406edc1531acd282e69b5826c8]
reverse link Web UI to Server--><g id="link_Web UI_Server"><path d="M291.889,138.1079 C350.877,189.0429 530.883,344.4789 584.058,390.3949 " fill="none" id="Web UI-backto-Server" style="stroke:#181818;stroke-width:1.0;stroke-dasharray:7.0,7.0;"/><polygon fill="#181818" points="287.855,134.6239,292.0515,143.534,291.639,137.8922,297.2807,137.4796,287.855,134.6239" style="stroke:#181818;stroke-width:1.0;"/><text fill="#000000" font-family="sans-serif" font-size="13" lengthAdjust="spacing" textLength="41" x="504" y="263.8638">Байты</text><text fill="#000000" font-family="sans-serif" font-size="13" lengthAdjust="spacing" textLength="93" x="478" y="278.9966">изображения/</text><text fill="#000000" font-family="sans-serif" font-size="13" lengthAdjust="spacing" textLength="45" x="502" y="294.1294">текста</text></g><!--MD5=[599278ddd771f2e6a8153238f0cd531b]
link Web UI to Server--><g id="link_Web UI_Server"><path d="M273.603,135.6799 C275.752,168.2849 285.534,250.5529 330,297.7969 C389.907,361.4459 492.881,387.3259 552.545,397.3639 " fill="none" id="Web UI-to-Server" style="stroke:#181818;stroke-width:1.0;"/><polygon fill="#181818" points="557.826,398.2309,549.5913,392.8281,552.8918,397.4223,548.2976,400.7228,557.826,398.2309" style="stroke:#181818;stroke-width:1.0;"/><text fill="#000000" font-family="sans-serif" font-size="13" lengthAdjust="spacing" textLength="83" x="331" y="278.8638">Запрос к API</text></g><!--MD5=[2384474c9fa8b6e7cdddde6223ce0b00]
reverse link Хранилище шаблонов to Server--><g id="link_Хранилище шаблонов_Server"><path d="M713.601,148.3089 C709.632,183.7359 699.749,247.8469 677,297.7969 C660.195,334.6959 629.05,371.2869 611.631,390.1599 " fill="none" id="Хранилище шаблонов-backto-Server" style="stroke:#181818;stroke-width:1.0;"/><polygon fill="#181818" points="714.144,143.2949,709.1953,151.8102,713.6039,148.2656,717.1485,152.6743,714.144,143.2949" style="stroke:#181818;stroke-width:1.0;"/><text fill="#000000" font-family="sans-serif" font-size="13" lengthAdjust="spacing" textLength="63" x="694" y="271.3638">Получить</text><text fill="#000000" font-family="sans-serif" font-size="13" lengthAdjust="spacing" textLength="52" x="699.5" y="286.4966">шаблон</text></g><!--MD5=[7cfe2c8f6d7bbe1f2792bdc2024eb513]
link Хранилище шаблонов to Server--><g id="link_Хранилище шаблонов_Server"><path d="M685.726,142.3199 C655.461,164.8569 610.798,204.1149 592,250.7969 C573.751,296.1159 585.412,355.2399 593.371,384.7899 " fill="none" id="Хранилище шаблонов-to-Server" style="stroke:#181818;stroke-width:1.0;stroke-dasharray:7.0,7.0;"/><polygon fill="#181818" points="594.709,389.6129,596.1595,379.8714,593.3734,384.7946,588.4502,382.0084,594.709,389.6129" style="stroke:#181818;stroke-width:1.0;"/><text fill="#000000" font-family="sans-serif" font-size="13" lengthAdjust="spacing" textLength="54" x="603.5" y="271.3638">Шаблон</text><text fill="#000000" font-family="sans-serif" font-size="13" lengthAdjust="spacing" textLength="75" x="593" y="286.4966">программы</text></g><!--MD5=[536021dd5bff5c77617b5865f19334a7]
link Server to Генератор DSL--><g id="link_Server_Генератор DSL"><path d="M568.472,415.0559 C529.955,429.2159 465.437,459.5299 438,510.7969 C398.958,583.7479 461.609,680.8869 493.79,723.1569 " fill="none" id="Server-to-Генератор DSL" style="stroke:#181818;stroke-width:1.0;"/><polygon fill="#181818" points="496.992,727.3139,494.6688,717.743,493.9408,723.3528,488.331,722.6248,496.992,727.3139" style="stroke:#181818;stroke-width:1.0;"/><text fill="#000000" font-family="sans-serif" font-size="13" lengthAdjust="spacing" textLength="58" x="447" y="531.3638">Шаблон,</text><text fill="#000000" font-family="sans-serif" font-size="13" lengthAdjust="spacing" textLength="74" x="439" y="546.4966">параметры</text></g><!--MD5=[5c3b80bed3fe9ff0d4fbdb9e0febba38]
link Генератор DSL to Server--><g id="link_Генератор DSL_Server"><path d="M512.825,727.2889 C517.286,688.3389 530.158,589.9289 554,510.7969 C563.519,479.2019 579.571,444.3039 589.709,423.6179 " fill="none" id="Генератор DSL-to-Server" style="stroke:#181818;stroke-width:1.0;stroke-dasharray:7.0,7.0;"/><polygon fill="#181818" points="592.026,418.9259,584.4539,425.2237,589.8117,423.4088,591.6266,428.7666,592.026,418.9259" style="stroke:#181818;stroke-width:1.0;"/><text fill="#000000" font-family="sans-serif" font-size="13" lengthAdjust="spacing" textLength="65" x="560" y="523.8638">Описание</text><text fill="#000000" font-family="sans-serif" font-size="13" lengthAdjust="spacing" textLength="75" x="555" y="538.9966">программы</text><text fill="#000000" font-family="sans-serif" font-size="13" lengthAdjust="spacing" textLength="45" x="570" y="554.1294">на DSL</text></g><!--MD5=[c748cb88f22c572f123f666e6beef1cb]
link Server to Генератор кода--><g id="link_Server_Генератор кода"><path d="M630.581,414.6339 C651.567,421.8209 679.017,433.1809 700,448.7969 C728.851,470.2689 739.703,476.9999 752,510.7969 C779.205,585.5699 739.449,679.9819 718.08,722.1719 " fill="none" id="Server-to-Генератор кода" style="stroke:#181818;stroke-width:1.0;"/><polygon fill="#181818" points="715.696,726.8129,723.3654,720.6338,717.9799,722.365,716.2488,716.9795,715.696,726.8129" style="stroke:#181818;stroke-width:1.0;"/><text fill="#000000" font-family="sans-serif" font-size="13" lengthAdjust="spacing" textLength="65" x="766" y="523.8638">Описание</text><text fill="#000000" font-family="sans-serif" font-size="13" lengthAdjust="spacing" textLength="75" x="761" y="538.9966">программы</text><text fill="#000000" font-family="sans-serif" font-size="13" lengthAdjust="spacing" textLength="45" x="776" y="554.1294">на DSL</text></g><!--MD5=[d6d6bf75fc6e52f0a976a4c96795a8c1]
link Генератор кода to Server--><g id="link_Генератор кода_Server"><path d="M700.857,726.6589 C689.429,687.6269 660.884,591.0439 635,510.7969 C625.1,480.1039 612.835,444.6669 605.478,423.6669 " fill="none" id="Генератор кода-to-Server" style="stroke:#181818;stroke-width:1.0;stroke-dasharray:7.0,7.0;"/><polygon fill="#181818" points="603.807,418.9049,603.0099,428.7214,605.4612,423.6233,610.5594,426.0746,603.807,418.9049" style="stroke:#181818;stroke-width:1.0;"/><text fill="#000000" font-family="sans-serif" font-size="13" lengthAdjust="spacing" textLength="38" x="668.5" y="531.3638">Текст</text><text fill="#000000" font-family="sans-serif" font-size="13" lengthAdjust="spacing" textLength="75" x="650" y="546.4966">программы</text></g><!--MD5=[a4ea7304a73bba6ac1604312bafec2ac]
link Server to Генератор изображений--><g id="link_Server_Генератор изображений"><path d="M638.279,411.5029 C692.556,422.1409 790.004,449.0109 845,510.7969 C898.851,571.2969 921.492,667.7419 929.804,715.5269 " fill="none" id="Server-to-Генератор изображений" style="stroke:#181818;stroke-width:1.0;"/><polygon fill="#181818" points="930.656,720.5519,933.0951,711.0098,929.8201,715.6222,925.2077,712.3473,930.656,720.5519" style="stroke:#181818;stroke-width:1.0;"/><text fill="#000000" font-family="sans-serif" font-size="13" lengthAdjust="spacing" textLength="38" x="896.5" y="531.3638">Текст</text><text fill="#000000" font-family="sans-serif" font-size="13" lengthAdjust="spacing" textLength="75" x="878" y="546.4966">программы</text></g><!--MD5=[4550c530eb8390823f51b9c8ecdbb77a]
link Генератор изображений to Server--><g id="link_Генератор изображений_Server"><path d="M946.385,720.8479 C968.375,675.6269 1007.82,575.1569 962,510.7969 C924.868,458.6389 733.474,424.7029 644.533,411.5109 " fill="none" id="Генератор изображений-to-Server" style="stroke:#181818;stroke-width:1.0;stroke-dasharray:7.0,7.0;"/><polygon fill="#181818" points="639.342,410.7469,647.6647,416.0131,644.2889,411.474,648.828,408.0982,639.342,410.7469" style="stroke:#181818;stroke-width:1.0;"/><text fill="#000000" font-family="sans-serif" font-size="13" lengthAdjust="spacing" textLength="91" x="981" y="538.8638">Изображение</text></g><!--MD5=[0a1647f4cbee622f6f44da83a026a1f8]
link Хранилище программ to Server--><g id="link_Хранилище программ_Server"><path d="M933.138,142.9629 C900.191,177.4849 831.371,247.1389 766,297.7969 C716.665,336.0279 653.071,373.2229 620.428,391.5309 " fill="none" id="Хранилище программ-Server" style="stroke:#181818;stroke-width:1.0;"/><text fill="#000000" font-family="sans-serif" font-size="13" lengthAdjust="spacing" textLength="121" x="823" y="263.8638">Текст программы,</text><text fill="#000000" font-family="sans-serif" font-size="13" lengthAdjust="spacing" textLength="94" x="836.5" y="278.9966">изображение,</text><text fill="#000000" font-family="sans-serif" font-size="13" lengthAdjust="spacing" textLength="74" x="846.5" y="294.1294">параметры</text></g><!--MD5=[7027cf6364a76985ee09946440955257]
link Server to Система проверки--><g id="link_Server_Система проверки"><path d="M554.302,406.0089 C463.29,408.6739 265,421.2029 265,479.7969 C265,479.7969 265,479.7969 265,746.2969 C265,814.8569 330.415,872.3909 371.815,901.9379 " fill="none" id="Server-to-Система проверки" style="stroke:#181818;stroke-width:1.0;"/><polygon fill="#181818" points="375.992,904.8825,370.9414,896.4272,371.9056,902.0013,366.3315,902.9654,375.992,904.8825" style="stroke:#181818;stroke-width:1.0;"/><text fill="#000000" font-family="sans-serif" font-size="13" lengthAdjust="spacing" textLength="121" x="266" y="600.8638">Текст программы,</text><text fill="#000000" font-family="sans-serif" font-size="13" lengthAdjust="spacing" textLength="96" x="278.5" y="615.9966">ответ ученика</text></g><!--MD5=[6a8053eb4e0f6fed9273df4c0ab78406]
reverse link Server to Верификация--><g id="link_Server_Верификация"><path d="M549.793,407.6959 C425.916,414.3879 111,435.7349 111,479.7969 C111,479.7969 111,479.7969 111,746.2969 C111,805.4559 103.688,875.4389 100.031,906.7329 " fill="none" id="Server-backto-Верификация" style="stroke:#181818;stroke-width:1.0;stroke-dasharray:7.0,7.0;"/><polygon fill="#181818" points="554.833,407.4259,545.6321,403.9124,549.8401,407.693,546.0596,411.901,554.833,407.4259" style="stroke:#181818;stroke-width:1.0;"/><text fill="#000000" font-family="sans-serif" font-size="13" lengthAdjust="spacing" textLength="69" x="112" y="600.8638">Результат</text><text fill="#000000" font-family="sans-serif" font-size="13" lengthAdjust="spacing" textLength="63" x="115" y="615.9966">проверки</text></g><!--MD5=[44e0c79bb5740d0e81d90c81b7459246]
link Система проверки to Компилятор--><g id="link_Система проверки_Компилятор"><path d="M495.194,924.2969 C529.543,924.2969 568.305,924.2969 601.187,924.2969 " fill="none" id="Система проверки-to-Компилятор" style="stroke:#181818;stroke-width:1.0;"/><polygon fill="#181818" points="606.413,924.2969,597.413,920.2969,601.413,924.2969,597.413,928.2969,606.413,924.2969" style="stroke:#181818;stroke-width:1.0;"/><text fill="#000000" font-family="sans-serif" font-size="13" lengthAdjust="spacing" textLength="38" x="531.75" y="902.3638">Текст</text><text fill="#000000" font-family="sans-serif" font-size="13" lengthAdjust="spacing" textLength="75" x="513.25" y="917.4966">программы</text></g><!--MD5=[b9dcb359df743f50a1391a56684ddd9b]
link Компилятор to Скрипт запуска--><g id="link_Компилятор_Скрипт запуска"><path d="M747.511,924.2969 C784.689,924.2969 830.583,924.2969 869.747,924.2969 " fill="none" id="Компилятор-to-Скрипт запуска" style="stroke:#181818;stroke-width:1.0;"/><polygon fill="#181818" points="874.98,924.2969,865.98,920.2969,869.98,924.2969,865.98,928.2969,874.98,924.2969" style="stroke:#181818;stroke-width:1.0;"/><text fill="#000000" font-family="sans-serif" font-size="13" lengthAdjust="spacing" textLength="91" x="765.75" y="902.3638">Исполняемый</text><text fill="#000000" font-family="sans-serif" font-size="13" lengthAdjust="spacing" textLength="36" x="793.25" y="917.4966">файл</text></g><!--MD5=[1f7dc1a1f0e1effcfea939a27a5380a2]
link Скрипт запуска to Верификация--><g id="link_Скрипт запуска_Верификация"><path d="M924.167,907.2004 C887.461,887.7379 823.73,856.7169 765,841.7969 C563.404,790.5819 499.266,793.2939 297,841.7969 C237.064,856.1699 171.827,886.2268 132.952,905.8183 " fill="none" id="Скрипт запуска-to-Верификация" style="stroke:#181818;stroke-width:1.0;"/><polygon fill="#181818" points="128.344,908.1539,138.1802,907.6537,132.804,905.8938,134.564,900.5177,128.344,908.1539" style="stroke:#181818;stroke-width:1.0;"/><text fill="#000000" font-family="sans-serif" font-size="13" lengthAdjust="spacing" textLength="43" x="521.5" y="814.8638">Вывод</text><text fill="#000000" font-family="sans-serif" font-size="13" lengthAdjust="spacing" textLength="75" x="507.5" y="829.9966">программы</text></g><!--MD5=[0929d7db270a3da42afa7da3e5f9e4ed]
link Система проверки to Верификация--><g id="link_Система проверки_Верификация"><path d="M314.889,924.2969 C271.445,924.2969 219.785,924.2969 177.781,924.2969 " fill="none" id="Система проверки-to-Верификация" style="stroke:#181818;stroke-width:1.0;"/><polygon fill="#181818" points="172.708,924.2969,181.708,928.2969,177.708,924.2969,181.708,920.2969,172.708,924.2969" style="stroke:#181818;stroke-width:1.0;"/><text fill="#000000" font-family="sans-serif" font-size="13" lengthAdjust="spacing" textLength="106" x="190.75" y="917.3638">Ответ студента</text></g><!--MD5=[c957c528fcdb71db453e314541b9c0a0]
@startuml
title Архитектура приложения
rectangle Хранилище {
(Хранилище шаблонов)
(Хранилище программ)
}

rectangle Генерация {
(Генератор DSL)
(Генератор кода)
(Генератор изображений)
}

rectangle Проверка {
  (Система проверки)
  (Компилятор)
  (Скрипт запуска)
  (Верификация)
}

:User: as "Пользователь"
User -left- -> (Web UI): "Ввод\nданных"
(Web UI) -right..> User: "Изображение/\nтекст программы"
(Server) -up...> (Web UI): "Байты\nизображения/\nтекста"
(Web UI) -down- - -> (Server): Запрос к API
(Server) -left- - - -> (Хранилище шаблонов): "Получить\nшаблон" 
(Хранилище шаблонов) ....> (Server): "Шаблон\nпрограммы"
(Server) -down- - - -> (Генератор DSL): "Шаблон,\nпараметры"
(Генератор DSL) ....> (Server): "Описание\nпрограммы\nна DSL"
(Server) - - - -> (Генератор кода): "Описание\nпрограммы\nна DSL"
(Генератор кода) ....> (Server): "Текст\nпрограммы"
(Server) - - - -> (Генератор изображений): "Текст\nпрограммы"
(Генератор изображений) ....> (Server): Изображение
(Server) -left- - - - (Хранилище программ): "Текст программы,\nизображение,\nпараметры"
(Server) - - - - -> (Система проверки): "Текст программы,\nответ ученика"
(Верификация) -left......> (Server): "Результат\nпроверки"
(Система проверки) -right- -> (Компилятор): "Текст\nпрограммы"
(Компилятор) -right- -> (Скрипт запуска): "Исполняемый\nфайл"
(Скрипт запуска) -right- -> (Верификация): "Вывод\n программы"
(Система проверки) -right- - - - -> (Верификация): "Ответ студента"
@enduml

PlantUML version 1.2022.4beta2(Unknown compile time)
(GPL source distribution)
Java Runtime: Java(TM) SE Runtime Environment
JVM: Java HotSpot(TM) 64-Bit Server VM
Default Encoding: UTF-8
Language: en
Country: US
--></g></svg>