<?xml version="1.0" encoding="UTF-8" standalone="no"?><svg xmlns="http://www.w3.org/2000/svg" xmlns:xlink="http://www.w3.org/1999/xlink" contentStyleType="text/css" height="966px" preserveAspectRatio="none" style="width:1080px;height:966px;background:#FFFFFF;" version="1.1" viewBox="0 0 1080 966" width="1080px" zoomAndPan="magnify"><defs/><g><rect height="26.2969" style="stroke:#00000000;stroke-width:1.0;fill:none;" width="224" x="421" y="5"/><text fill="#000000" font-family="sans-serif" font-size="14" font-weight="bold" lengthAdjust="spacing" textLength="214" x="426" y="22.9951">Архитектура приложения</text><!--MD5=[2417afb9e5a60522b6f11026917cccf3]
cluster Хранилище--><g id="cluster_Хранилище"><rect height="115" rx="2.5" ry="2.5" style="stroke:#181818;stroke-width:1.0;fill:none;" width="472" x="599" y="44.2969"/><text fill="#000000" font-family="sans-serif" font-size="14" font-weight="bold" lengthAdjust="spacing" textLength="95" x="787.5" y="59.292">Хранилище</text></g><!--MD5=[376759ce94f362e54059b3a489f1c442]
cluster Генерация--><g id="cluster_Генерация"><rect height="119" rx="2.5" ry="2.5" style="stroke:#181818;stroke-width:1.0;fill:none;" width="633" x="428" y="666.7969"/><text fill="#000000" font-family="sans-serif" font-size="14" font-weight="bold" lengthAdjust="spacing" textLength="86" x="701.5" y="681.792">Генерация</text></g><!--MD5=[a88ddcf031d6899364c610b18a25be23]
cluster Проверка--><g id="cluster_Проверка"><rect height="111" rx="2.5" ry="2.5" style="stroke:#181818;stroke-width:1.0;fill:none;" width="1044" x="7" y="849.7969"/><text fill="#000000" font-family="sans-serif" font-size="14" font-weight="bold" lengthAdjust="spacing" textLength="78" x="490" y="864.792">Проверка</text></g><g id="elem_Хранилище шаблонов"><ellipse cx="715.9278" cy="120.7824" fill="#F1F1F1" rx="100.4278" ry="22.4856" style="stroke:#181818;stroke-width:0.5;"/><text fill="#000000" font-family="sans-serif" font-size="14" lengthAdjust="spacing" textLength="165" x="633.4278" y="123.6291">Хранилище шаблонов</text></g><g id="elem_Хранилище программ"><ellipse cx="952.8371" cy="120.9643" fill="#F1F1F1" rx="101.3371" ry="22.6674" style="stroke:#181818;stroke-width:0.5;"/><text fill="#000000" font-family="sans-serif" font-size="14" lengthAdjust="spacing" textLength="167" x="869.3371" y="123.811">Хранилище программ</text></g><g id="elem_Генератор IR"><ellipse cx="517.1868" cy="745.2342" fill="#F1F1F1" rx="72.6868" ry="16.9374" style="stroke:#181818;stroke-width:0.5;"/><text fill="#000000" font-family="sans-serif" font-size="14" lengthAdjust="spacing" textLength="100" x="464.1868" y="748.9818">Генератор IR</text></g><g id="elem_Генератор кода"><ellipse cx="705.9455" cy="745.486" fill="#F1F1F1" rx="81.4455" ry="18.6891" style="stroke:#181818;stroke-width:0.5;"/><text fill="#000000" font-family="sans-serif" font-size="14" lengthAdjust="spacing" textLength="122" x="643.8109" y="748.7058">Генератор кода</text></g><g id="elem_Генератор изображений"><ellipse cx="933.9811" cy="745.3931" fill="#F1F1F1" rx="110.9811" ry="24.5962" style="stroke:#181818;stroke-width:0.5;"/><text fill="#000000" font-family="sans-serif" font-size="14" lengthAdjust="spacing" textLength="188" x="839.9811" y="748.2398">Генератор изображений</text></g><g id="elem_Система проверки"><ellipse cx="405.1144" cy="924.2198" fill="#F1F1F1" rx="90.1144" ry="20.4229" style="stroke:#181818;stroke-width:0.5;"/><text fill="#000000" font-family="sans-serif" font-size="14" lengthAdjust="spacing" textLength="142" x="334.1144" y="927.0664">Система проверки</text></g><g id="elem_Компилятор"><ellipse cx="676.9333" cy="924.2835" fill="#F1F1F1" rx="70.4333" ry="16.4867" style="stroke:#181818;stroke-width:0.5;"/><text fill="#000000" font-family="sans-serif" font-size="14" lengthAdjust="spacing" textLength="94" x="626.9333" y="928.0311">Компилятор</text></g><g id="elem_Скрипт запуска"><ellipse cx="954.7839" cy="924.1536" fill="#F1F1F1" rx="79.7839" ry="18.3568" style="stroke:#181818;stroke-width:0.5;"/><text fill="#000000" font-family="sans-serif" font-size="14" lengthAdjust="spacing" textLength="118" x="894.0356" y="927.5582">Скрипт запуска</text></g><g id="elem_Верификация"><ellipse cx="98.1066" cy="924.1182" fill="#F1F1F1" rx="74.6066" ry="17.3213" style="stroke:#181818;stroke-width:0.5;"/><text fill="#000000" font-family="sans-serif" font-size="14" lengthAdjust="spacing" textLength="105" x="42.6066" y="927.8658">Верификация</text></g><!--MD5=[fee662a292a0353a69bd162820bae93b]
entity User--><g id="elem_User"><ellipse cx="527" cy="91.2969" fill="#F1F1F1" rx="8" ry="8" style="stroke:#181818;stroke-width:0.5;"/><path d="M527,99.2969 L527,126.2969 M514,107.2969 L540,107.2969 M527,126.2969 L514,141.2969 M527,126.2969 L540,141.2969 " fill="none" style="stroke:#181818;stroke-width:0.5;"/><text fill="#000000" font-family="sans-serif" font-size="14" lengthAdjust="spacing" textLength="107" x="473.5" y="155.792">Пользователь</text></g><g id="elem_Web UI"><ellipse cx="272.8761" cy="120.9613" fill="#F1F1F1" rx="47.3761" ry="14.6644" style="stroke:#181818;stroke-width:0.5;"/><text fill="#000000" font-family="sans-serif" font-size="14" lengthAdjust="spacing" textLength="50" x="244.8761" y="124.7088">Web UI</text></g><g id="elem_Сервер"><ellipse cx="599.1007" cy="404.5119" fill="#F1F1F1" rx="52.6007" ry="14.715" style="stroke:#181818;stroke-width:0.5;"/><text fill="#000000" font-family="sans-serif" font-size="14" lengthAdjust="spacing" textLength="57" x="567.6007" y="408.2595">Сервер</text></g><!--MD5=[9239898c0fc96cdbb61e0ec2d3da7772]
reverse link Web UI to User--><g id="link_Web UI_User"><path d="M303.709,134.9759 C322.424,142.8269 347.077,151.7879 370,155.7969 C393.641,159.9319 400.321,159.7099 424,155.7969 C440.397,153.0869 457.692,148.1049 473.331,142.7319 " fill="none" id="Web UI-backto-User" style="stroke:#181818;stroke-width:1.0;"/><polygon fill="#181818" points="299.083,133.0069,305.7986,140.2111,303.6839,134.9644,308.9306,132.8497,299.083,133.0069" style="stroke:#181818;stroke-width:1.0;"/><text fill="#000000" font-family="sans-serif" font-size="13" lengthAdjust="spacing" textLength="33" x="380.5" y="136.8638">Ввод</text><text fill="#000000" font-family="sans-serif" font-size="13" lengthAdjust="spacing" textLength="52" x="371" y="151.9966">данных</text></g><!--MD5=[e12c657bfa306dd9a5a224d5fc5fc4db]
link Web UI to User--><g id="link_Web UI_User"><path d="M320.775,120.7969 C362.564,120.7969 423.407,120.7969 468.181,120.7969 " fill="none" id="Web UI-to-User" style="stroke:#181818;stroke-width:1.0;stroke-dasharray:7.0,7.0;"/><polygon fill="#181818" points="473.284,120.7969,464.284,116.7969,468.284,120.7969,464.284,124.7969,473.284,120.7969" style="stroke:#181818;stroke-width:1.0;"/><text fill="#000000" font-family="sans-serif" font-size="13" lengthAdjust="spacing" textLength="95" x="349.5" y="98.8638">Изображение/</text><text fill="#000000" font-family="sans-serif" font-size="13" lengthAdjust="spacing" textLength="116" x="339" y="113.9966">текст программы</text></g><!--MD5=[7992d5c66ac9b980ea822cd79aa611a2]
reverse link Web UI to Сервер--><g id="link_Web UI_Сервер"><path d="M291.889,138.1079 C350.877,189.0429 530.883,344.4789 584.058,390.3949 " fill="none" id="Web UI-backto-Сервер" style="stroke:#181818;stroke-width:1.0;stroke-dasharray:7.0,7.0;"/><polygon fill="#181818" points="287.855,134.6239,292.0515,143.534,291.639,137.8922,297.2807,137.4796,287.855,134.6239" style="stroke:#181818;stroke-width:1.0;"/><text fill="#000000" font-family="sans-serif" font-size="13" lengthAdjust="spacing" textLength="41" x="504" y="263.8638">Байты</text><text fill="#000000" font-family="sans-serif" font-size="13" lengthAdjust="spacing" textLength="93" x="478" y="278.9966">изображения/</text><text fill="#000000" font-family="sans-serif" font-size="13" lengthAdjust="spacing" textLength="45" x="502" y="294.1294">текста</text></g><!--MD5=[d64804a3d93151b894a2edbd57706529]
link Web UI to Сервер--><g id="link_Web UI_Сервер"><path d="M273.603,135.6799 C275.752,168.2849 285.534,250.5529 330,297.7969 C388.272,359.7089 487.292,385.8849 547.564,396.5059 " fill="none" id="Web UI-to-Сервер" style="stroke:#181818;stroke-width:1.0;"/><polygon fill="#181818" points="552.554,397.3659,544.3632,391.8968,547.6265,396.5175,543.0058,399.7808,552.554,397.3659" style="stroke:#181818;stroke-width:1.0;"/><text fill="#000000" font-family="sans-serif" font-size="13" lengthAdjust="spacing" textLength="83" x="331" y="278.8638">Запрос к API</text></g><!--MD5=[e1fb51ee7c2dae8750be22f78a612c8e]
reverse link Хранилище шаблонов to Сервер--><g id="link_Хранилище шаблонов_Сервер"><path d="M713.601,148.3089 C709.632,183.7359 699.749,247.8469 677,297.7969 C660.195,334.6959 629.05,371.2869 611.631,390.1599 " fill="none" id="Хранилище шаблонов-backto-Сервер" style="stroke:#181818;stroke-width:1.0;"/><polygon fill="#181818" points="714.144,143.2949,709.1953,151.8102,713.6039,148.2656,717.1485,152.6743,714.144,143.2949" style="stroke:#181818;stroke-width:1.0;"/><text fill="#000000" font-family="sans-serif" font-size="13" lengthAdjust="spacing" textLength="63" x="694" y="271.3638">Получить</text><text fill="#000000" font-family="sans-serif" font-size="13" lengthAdjust="spacing" textLength="52" x="699.5" y="286.4966">шаблон</text></g><!--MD5=[5dcb20bde34947c8e6623f823b54eb4a]
link Хранилище шаблонов to Сервер--><g id="link_Хранилище шаблонов_Сервер"><path d="M685.726,142.3199 C655.461,164.8569 610.798,204.1149 592,250.7969 C573.751,296.1159 585.412,355.2399 593.371,384.7899 " fill="none" id="Хранилище шаблонов-to-Сервер" style="stroke:#181818;stroke-width:1.0;stroke-dasharray:7.0,7.0;"/><polygon fill="#181818" points="594.709,389.6129,596.1595,379.8714,593.3734,384.7946,588.4502,382.0084,594.709,389.6129" style="stroke:#181818;stroke-width:1.0;"/><text fill="#000000" font-family="sans-serif" font-size="13" lengthAdjust="spacing" textLength="54" x="603.5" y="271.3638">Шаблон</text><text fill="#000000" font-family="sans-serif" font-size="13" lengthAdjust="spacing" textLength="75" x="593" y="286.4966">программы</text></g><!--MD5=[2885759e0afd3295f1d2089ee4399f80]
link Сервер to Генератор IR--><g id="link_Сервер_Генератор IR"><path d="M566.456,415.8029 C527.741,430.2669 464.964,460.4139 438,510.7969 C398.271,585.0319 466.268,683.0769 499.875,724.4889 " fill="none" id="Сервер-to-Генератор IR" style="stroke:#181818;stroke-width:1.0;"/><polygon fill="#181818" points="503.21,728.5519,500.5941,719.0568,500.0387,724.6863,494.4092,724.1309,503.21,728.5519" style="stroke:#181818;stroke-width:1.0;"/><text fill="#000000" font-family="sans-serif" font-size="13" lengthAdjust="spacing" textLength="58" x="447" y="531.3638">Шаблон,</text><text fill="#000000" font-family="sans-serif" font-size="13" lengthAdjust="spacing" textLength="74" x="439" y="546.4966">параметры</text></g><!--MD5=[3061b8abbd7704e441a19b1b0a8667fb]
link Генератор IR to Сервер--><g id="link_Генератор IR_Сервер"><path d="M518.184,728.1469 C521.291,689.7919 531.075,590.4729 554,510.7969 C563.124,479.0859 579.292,444.2219 589.561,423.5749 " fill="none" id="Генератор IR-to-Сервер" style="stroke:#181818;stroke-width:1.0;stroke-dasharray:7.0,7.0;"/><polygon fill="#181818" points="591.911,418.8919,584.2996,425.1422,589.6686,423.3609,591.45,428.7299,591.911,418.8919" style="stroke:#181818;stroke-width:1.0;"/><text fill="#000000" font-family="sans-serif" font-size="13" lengthAdjust="spacing" textLength="65" x="560" y="523.8638">Описание</text><text fill="#000000" font-family="sans-serif" font-size="13" lengthAdjust="spacing" textLength="75" x="555" y="538.9966">программы</text><text fill="#000000" font-family="sans-serif" font-size="13" lengthAdjust="spacing" textLength="60" x="562.5" y="554.1294">в виде IR</text></g><!--MD5=[962f4b333bfb84abecdf7e26dcea3fda]
link Сервер to Генератор кода--><g id="link_Сервер_Генератор кода"><path d="M632.904,415.4379 C653.562,422.6559 679.783,433.7509 700,448.7969 C728.851,470.2689 739.703,476.9999 752,510.7969 C779.205,585.5699 739.449,679.9819 718.08,722.1719 " fill="none" id="Сервер-to-Генератор кода" style="stroke:#181818;stroke-width:1.0;"/><polygon fill="#181818" points="715.696,726.8129,723.3654,720.6338,717.9799,722.365,716.2488,716.9795,715.696,726.8129" style="stroke:#181818;stroke-width:1.0;"/><text fill="#000000" font-family="sans-serif" font-size="13" lengthAdjust="spacing" textLength="65" x="766" y="523.8638">Описание</text><text fill="#000000" font-family="sans-serif" font-size="13" lengthAdjust="spacing" textLength="75" x="761" y="538.9966">программы</text><text fill="#000000" font-family="sans-serif" font-size="13" lengthAdjust="spacing" textLength="60" x="768.5" y="554.1294">в виде IR</text></g><!--MD5=[9229e92618dc325e8703ff90ada06f25]
link Генератор кода to Сервер--><g id="link_Генератор кода_Сервер"><path d="M700.857,726.6589 C689.429,687.6269 660.884,591.0439 635,510.7969 C625.1,480.1039 612.835,444.6669 605.478,423.6669 " fill="none" id="Генератор кода-to-Сервер" style="stroke:#181818;stroke-width:1.0;stroke-dasharray:7.0,7.0;"/><polygon fill="#181818" points="603.807,418.9049,603.0099,428.7214,605.4612,423.6233,610.5594,426.0746,603.807,418.9049" style="stroke:#181818;stroke-width:1.0;"/><text fill="#000000" font-family="sans-serif" font-size="13" lengthAdjust="spacing" textLength="38" x="668.5" y="531.3638">Текст</text><text fill="#000000" font-family="sans-serif" font-size="13" lengthAdjust="spacing" textLength="75" x="650" y="546.4966">программы</text></g><!--MD5=[c96121154bb497faf339dfafedb45371]
link Сервер to Генератор изображений--><g id="link_Сервер_Генератор изображений"><path d="M642.953,412.4389 C697.997,423.6779 791.549,450.7459 845,510.7969 C898.851,571.2969 921.492,667.7419 929.804,715.5269 " fill="none" id="Сервер-to-Генератор изображений" style="stroke:#181818;stroke-width:1.0;"/><polygon fill="#181818" points="930.656,720.5519,933.0951,711.0098,929.8201,715.6222,925.2077,712.3473,930.656,720.5519" style="stroke:#181818;stroke-width:1.0;"/><text fill="#000000" font-family="sans-serif" font-size="13" lengthAdjust="spacing" textLength="38" x="896.5" y="531.3638">Текст</text><text fill="#000000" font-family="sans-serif" font-size="13" lengthAdjust="spacing" textLength="75" x="878" y="546.4966">программы</text></g><!--MD5=[ae75ace41f67ea0490a09819bdcacc85]
link Генератор изображений to Сервер--><g id="link_Генератор изображений_Сервер"><path d="M946.385,720.8479 C968.375,675.6269 1007.82,575.1569 962,510.7969 C925.578,459.6369 740.738,426.0079 649.746,412.2899 " fill="none" id="Генератор изображений-to-Сервер" style="stroke:#181818;stroke-width:1.0;stroke-dasharray:7.0,7.0;"/><polygon fill="#181818" points="644.688,411.5339,652.9968,416.822,649.6329,412.274,654.1809,408.9101,644.688,411.5339" style="stroke:#181818;stroke-width:1.0;"/><text fill="#000000" font-family="sans-serif" font-size="13" lengthAdjust="spacing" textLength="91" x="981" y="538.8638">Изображение</text></g><!--MD5=[1e404e72d5922b004027a34413fcfa24]
link Хранилище программ to Сервер--><g id="link_Хранилище программ_Сервер"><path d="M933.138,142.9629 C900.191,177.4849 831.371,247.1389 766,297.7969 C717.071,335.7129 654.118,372.6089 621.241,391.0749 " fill="none" id="Хранилище программ-Сервер" style="stroke:#181818;stroke-width:1.0;"/><text fill="#000000" font-family="sans-serif" font-size="13" lengthAdjust="spacing" textLength="121" x="823" y="263.8638">Текст программы,</text><text fill="#000000" font-family="sans-serif" font-size="13" lengthAdjust="spacing" textLength="94" x="836.5" y="278.9966">изображение,</text><text fill="#000000" font-family="sans-serif" font-size="13" lengthAdjust="spacing" textLength="74" x="846.5" y="294.1294">параметры</text></g><!--MD5=[c384c2a499689033fdfcfc3e5c569ea4]
link Сервер to Система проверки--><g id="link_Сервер_Система проверки"><path d="M546.812,406.2439 C452.875,409.3729 265,422.7619 265,479.7969 C265,479.7969 265,479.7969 265,746.2969 C265,814.8569 330.415,872.3909 371.815,901.9379 " fill="none" id="Сервер-to-Система проверки" style="stroke:#181818;stroke-width:1.0;"/><polygon fill="#181818" points="375.992,904.8825,370.9414,896.4272,371.9056,902.0013,366.3315,902.9654,375.992,904.8825" style="stroke:#181818;stroke-width:1.0;"/><text fill="#000000" font-family="sans-serif" font-size="13" lengthAdjust="spacing" textLength="121" x="266" y="600.8638">Текст программы,</text><text fill="#000000" font-family="sans-serif" font-size="13" lengthAdjust="spacing" textLength="96" x="278.5" y="615.9966">ответ ученика</text></g><!--MD5=[89a96cf3ba3526a56e9abc9331ee04cc]
reverse link Сервер to Верификация--><g id="link_Сервер_Верификация"><path d="M542.456,408.0969 C413.949,415.2159 111,436.5799 111,479.7969 C111,479.7969 111,479.7969 111,746.2969 C111,805.4559 103.688,875.4389 100.031,906.7329 " fill="none" id="Сервер-backto-Верификация" style="stroke:#181818;stroke-width:1.0;stroke-dasharray:7.0,7.0;"/><polygon fill="#181818" points="547.698,407.8089,538.4921,404.3086,542.7055,408.0831,538.931,412.2965,547.698,407.8089" style="stroke:#181818;stroke-width:1.0;"/><text fill="#000000" font-family="sans-serif" font-size="13" lengthAdjust="spacing" textLength="69" x="112" y="600.8638">Результат</text><text fill="#000000" font-family="sans-serif" font-size="13" lengthAdjust="spacing" textLength="63" x="115" y="615.9966">проверки</text></g><!--MD5=[44e0c79bb5740d0e81d90c81b7459246]
link Система проверки to Компилятор--><g id="link_Система проверки_Компилятор"><path d="M495.194,924.2969 C529.543,924.2969 568.305,924.2969 601.187,924.2969 " fill="none" id="Система проверки-to-Компилятор" style="stroke:#181818;stroke-width:1.0;"/><polygon fill="#181818" points="606.413,924.2969,597.413,920.2969,601.413,924.2969,597.413,928.2969,606.413,924.2969" style="stroke:#181818;stroke-width:1.0;"/><text fill="#000000" font-family="sans-serif" font-size="13" lengthAdjust="spacing" textLength="38" x="531.75" y="902.3638">Текст</text><text fill="#000000" font-family="sans-serif" font-size="13" lengthAdjust="spacing" textLength="75" x="513.25" y="917.4966">программы</text></g><!--MD5=[b9dcb359df743f50a1391a56684ddd9b]
link Компилятор to Скрипт запуска--><g id="link_Компилятор_Скрипт запуска"><path d="M747.511,924.2969 C784.689,924.2969 830.583,924.2969 869.747,924.2969 " fill="none" id="Компилятор-to-Скрипт запуска" style="stroke:#181818;stroke-width:1.0;"/><polygon fill="#181818" points="874.98,924.2969,865.98,920.2969,869.98,924.2969,865.98,928.2969,874.98,924.2969" style="stroke:#181818;stroke-width:1.0;"/><text fill="#000000" font-family="sans-serif" font-size="13" lengthAdjust="spacing" textLength="91" x="765.75" y="902.3638">Исполняемый</text><text fill="#000000" font-family="sans-serif" font-size="13" lengthAdjust="spacing" textLength="36" x="793.25" y="917.4966">файл</text></g><!--MD5=[1f7dc1a1f0e1effcfea939a27a5380a2]
link Скрипт запуска to Верификация--><g id="link_Скрипт запуска_Верификация"><path d="M924.167,907.2004 C887.461,887.7379 823.73,856.7169 765,841.7969 C563.404,790.5819 499.266,793.2939 297,841.7969 C237.064,856.1699 171.827,886.2268 132.952,905.8183 " fill="none" id="Скрипт запуска-to-Верификация" style="stroke:#181818;stroke-width:1.0;"/><polygon fill="#181818" points="128.344,908.1539,138.1802,907.6537,132.804,905.8938,134.564,900.5177,128.344,908.1539" style="stroke:#181818;stroke-width:1.0;"/><text fill="#000000" font-family="sans-serif" font-size="13" lengthAdjust="spacing" textLength="43" x="521.5" y="814.8638">Вывод</text><text fill="#000000" font-family="sans-serif" font-size="13" lengthAdjust="spacing" textLength="75" x="507.5" y="829.9966">программы</text></g><!--MD5=[0929d7db270a3da42afa7da3e5f9e4ed]
link Система проверки to Верификация--><g id="link_Система проверки_Верификация"><path d="M314.889,924.2969 C271.445,924.2969 219.785,924.2969 177.781,924.2969 " fill="none" id="Система проверки-to-Верификация" style="stroke:#181818;stroke-width:1.0;"/><polygon fill="#181818" points="172.708,924.2969,181.708,928.2969,177.708,924.2969,181.708,920.2969,172.708,924.2969" style="stroke:#181818;stroke-width:1.0;"/><text fill="#000000" font-family="sans-serif" font-size="13" lengthAdjust="spacing" textLength="106" x="190.75" y="917.3638">Ответ студента</text></g><!--MD5=[70f1f21f4b6197d6786ffc918b872d3f]
@startuml
title Архитектура приложения
rectangle Хранилище {
(Хранилище шаблонов)
(Хранилище программ)
}

rectangle Генерация {
(Генератор IR)
(Генератор кода)
(Генератор изображений)
}

rectangle Проверка {
  (Система проверки)
  (Компилятор)
  (Скрипт запуска)
  (Верификация)
}

:User: as "Пользователь"
User -left- -> (Web UI): "Ввод\nданных"
(Web UI) -right..> User: "Изображение/\nтекст программы"
(Сервер) -up...> (Web UI): "Байты\nизображения/\nтекста"
(Web UI) -down- - -> (Сервер): Запрос к API
(Сервер) -left- - - -> (Хранилище шаблонов): "Получить\nшаблон" 
(Хранилище шаблонов) ....> (Сервер): "Шаблон\nпрограммы"
(Сервер) -down- - - -> (Генератор IR): "Шаблон,\nпараметры"
(Генератор IR) ....> (Сервер): "Описание\nпрограммы\nв виде IR"
(Сервер) - - - -> (Генератор кода): "Описание\nпрограммы\nв виде IR"
(Генератор кода) ....> (Сервер): "Текст\nпрограммы"
(Сервер) - - - -> (Генератор изображений): "Текст\nпрограммы"
(Генератор изображений) ....> (Сервер): Изображение
(Сервер) -left- - - - (Хранилище программ): "Текст программы,\nизображение,\nпараметры"
(Сервер) - - - - -> (Система проверки): "Текст программы,\nответ ученика"
(Верификация) -left......> (Сервер): "Результат\nпроверки"
(Система проверки) -right- -> (Компилятор): "Текст\nпрограммы"
(Компилятор) -right- -> (Скрипт запуска): "Исполняемый\nфайл"
(Скрипт запуска) -right- -> (Верификация): "Вывод\n программы"
(Система проверки) -right- - - - -> (Верификация): "Ответ студента"
@enduml

PlantUML version 1.2022.4beta2(Unknown compile time)
(GPL source distribution)
Java Runtime: Java(TM) SE Runtime Environment
JVM: Java HotSpot(TM) 64-Bit Server VM
Default Encoding: UTF-8
Language: en
Country: US
--></g></svg>