<?xml version="1.0" encoding="UTF-8" standalone="no"?><svg xmlns="http://www.w3.org/2000/svg" xmlns:xlink="http://www.w3.org/1999/xlink" contentStyleType="text/css" height="1088px" preserveAspectRatio="none" style="width:866px;height:1088px;background:#FFFFFF;" version="1.1" viewBox="0 0 866 1088" width="866px" zoomAndPan="magnify"><defs/><g><rect height="26.2969" style="stroke:#00000000;stroke-width:1.0;fill:none;" width="347" x="252.6985" y="5"/><text fill="#000000" font-family="sans-serif" font-size="14" font-weight="bold" lengthAdjust="spacing" textLength="337" x="257.6985" y="22.9951">Program Generator - Component Diagram</text><!--MD5=[f2eccd96abbebed512718e2eeeec98bc]
cluster Web-server--><g id="cluster_Web-server"><polygon points="28,549.2969,38,539.2969,573,539.2969,573,738.2969,563,748.2969,28,748.2969,28,549.2969" style="stroke:#181818;stroke-width:1.0;fill:none;"/><line style="stroke:#181818;stroke-width:1.0;fill:none;" x1="563" x2="573" y1="549.2969" y2="539.2969"/><line style="stroke:#181818;stroke-width:1.0;fill:none;" x1="28" x2="563" y1="549.2969" y2="549.2969"/><line style="stroke:#181818;stroke-width:1.0;fill:none;" x1="563" x2="563" y1="549.2969" y2="748.2969"/><text fill="#000000" font-family="sans-serif" font-size="14" font-weight="bold" lengthAdjust="spacing" textLength="90" x="251.5" y="565.292">Web-server</text></g><!--MD5=[791bc051182a83ad5b88f769c96006b1]
cluster Template Manager--><g id="cluster_Template Manager"><polygon points="39,53.2969,49,43.2969,267,43.2969,267,296.7969,257,306.7969,39,306.7969,39,53.2969" style="stroke:#181818;stroke-width:1.0;fill:none;"/><line style="stroke:#181818;stroke-width:1.0;fill:none;" x1="257" x2="267" y1="53.2969" y2="43.2969"/><line style="stroke:#181818;stroke-width:1.0;fill:none;" x1="39" x2="257" y1="53.2969" y2="53.2969"/><line style="stroke:#181818;stroke-width:1.0;fill:none;" x1="257" x2="257" y1="53.2969" y2="306.7969"/><text fill="#000000" font-family="sans-serif" font-size="14" font-weight="bold" lengthAdjust="spacing" textLength="152" x="73" y="69.292">Template Manager</text></g><!--MD5=[3bae978355f5dd50ffbc21b5a307b0cb]
cluster Client side--><g id="cluster_Client side"><polygon points="558,370.2969,568,360.2969,734,360.2969,734,452.2969,724,462.2969,558,462.2969,558,370.2969" style="stroke:#181818;stroke-width:1.0;fill:none;"/><line style="stroke:#181818;stroke-width:1.0;fill:none;" x1="724" x2="734" y1="370.2969" y2="360.2969"/><line style="stroke:#181818;stroke-width:1.0;fill:none;" x1="558" x2="724" y1="370.2969" y2="370.2969"/><line style="stroke:#181818;stroke-width:1.0;fill:none;" x1="724" x2="724" y1="370.2969" y2="462.2969"/><text fill="#000000" font-family="sans-serif" font-size="14" font-weight="bold" lengthAdjust="spacing" textLength="85" x="599.5" y="386.292">Client side</text></g><!--MD5=[815249f79c2c08157ac02b3106e03757]
cluster Database--><g id="cluster_Database"><path d="M6,969.2969 C6,959.2969 220.5,959.2969 220.5,959.2969 C220.5,959.2969 435,959.2969 435,969.2969 L435,1061.2969 C435,1071.2969 220.5,1071.2969 220.5,1071.2969 C220.5,1071.2969 6,1071.2969 6,1061.2969 L6,969.2969 " style="stroke:#181818;stroke-width:1.0;fill:none;"/><path d="M6,969.2969 C6,979.2969 220.5,979.2969 220.5,979.2969 C220.5,979.2969 435,979.2969 435,969.2969 " fill="none" style="stroke:#181818;stroke-width:1.0;"/><text fill="#000000" font-family="sans-serif" font-size="14" font-weight="bold" lengthAdjust="spacing" textLength="77" x="182" y="994.292">Database</text></g><!--MD5=[5faa1f6650dcc83a5ae7ff8bee5feaa2]
cluster ProgramRunner--><g id="cluster_ProgramRunner"><polygon points="459,791.2969,469,781.2969,798,781.2969,798,1061.2969,788,1071.2969,459,1071.2969,459,791.2969" style="stroke:#181818;stroke-width:1.0;fill:none;"/><line style="stroke:#181818;stroke-width:1.0;fill:none;" x1="788" x2="798" y1="791.2969" y2="781.2969"/><line style="stroke:#181818;stroke-width:1.0;fill:none;" x1="459" x2="788" y1="791.2969" y2="791.2969"/><line style="stroke:#181818;stroke-width:1.0;fill:none;" x1="788" x2="788" y1="791.2969" y2="1071.2969"/><text fill="#000000" font-family="sans-serif" font-size="14" font-weight="bold" lengthAdjust="spacing" textLength="131" x="559" y="807.292">Program Runner</text></g><!--MD5=[5a6e39547496c0bf69fb59fcc5b9cc98]
entity PGL--><g id="elem_PGL"><rect fill="#F1F1F1" height="46.2969" rx="2.5" ry="2.5" style="stroke:#181818;stroke-width:0.5;" width="228" x="329" y="579.2969"/><rect fill="#F1F1F1" height="10" style="stroke:#181818;stroke-width:0.5;" width="15" x="537" y="584.2969"/><rect fill="#F1F1F1" height="2" style="stroke:#181818;stroke-width:0.5;" width="4" x="535" y="586.2969"/><rect fill="#F1F1F1" height="2" style="stroke:#181818;stroke-width:0.5;" width="4" x="535" y="590.2969"/><text fill="#000000" font-family="sans-serif" font-size="14" lengthAdjust="spacing" textLength="188" x="344" y="612.292">Program Generation Logic</text></g><!--MD5=[1a77e5cd4ad91cfd45abfe622ceef29c]
entity TML--><g id="elem_TML"><rect fill="#F1F1F1" height="46.2969" rx="2.5" ry="2.5" style="stroke:#181818;stroke-width:0.5;" width="250" x="44" y="579.2969"/><rect fill="#F1F1F1" height="10" style="stroke:#181818;stroke-width:0.5;" width="15" x="274" y="584.2969"/><rect fill="#F1F1F1" height="2" style="stroke:#181818;stroke-width:0.5;" width="4" x="272" y="586.2969"/><rect fill="#F1F1F1" height="2" style="stroke:#181818;stroke-width:0.5;" width="4" x="272" y="590.2969"/><text fill="#000000" font-family="sans-serif" font-size="14" lengthAdjust="spacing" textLength="210" x="59" y="612.292">Template Management Logic</text></g><!--MD5=[1501a7c6e18b72562096fdcc40a4c205]
entity PDA--><g id="elem_PDA"><rect fill="#F1F1F1" height="46.2969" rx="2.5" ry="2.5" style="stroke:#181818;stroke-width:0.5;" width="192" x="287" y="686.2969"/><rect fill="#F1F1F1" height="10" style="stroke:#181818;stroke-width:0.5;" width="15" x="459" y="691.2969"/><rect fill="#F1F1F1" height="2" style="stroke:#181818;stroke-width:0.5;" width="4" x="457" y="693.2969"/><rect fill="#F1F1F1" height="2" style="stroke:#181818;stroke-width:0.5;" width="4" x="457" y="697.2969"/><text fill="#000000" font-family="sans-serif" font-size="14" lengthAdjust="spacing" textLength="152" x="302" y="719.292">Program Data Access</text></g><!--MD5=[55b09b3548dd9927d6df7536785a08a4]
entity TDA--><g id="elem_TDA"><rect fill="#F1F1F1" height="46.2969" rx="2.5" ry="2.5" style="stroke:#181818;stroke-width:0.5;" width="201" x="50.5" y="686.2969"/><rect fill="#F1F1F1" height="10" style="stroke:#181818;stroke-width:0.5;" width="15" x="231.5" y="691.2969"/><rect fill="#F1F1F1" height="2" style="stroke:#181818;stroke-width:0.5;" width="4" x="229.5" y="693.2969"/><rect fill="#F1F1F1" height="2" style="stroke:#181818;stroke-width:0.5;" width="4" x="229.5" y="697.2969"/><text fill="#000000" font-family="sans-serif" font-size="14" lengthAdjust="spacing" textLength="161" x="65.5" y="719.292">Template Data Access</text></g><!--MD5=[650c30ddc985e46a5a55ae19d2187277]
entity TF--><g id="elem_TF"><rect fill="#F1F1F1" height="46.2969" rx="2.5" ry="2.5" style="stroke:#181818;stroke-width:0.5;" width="146" x="96" y="83.2969"/><rect fill="#F1F1F1" height="10" style="stroke:#181818;stroke-width:0.5;" width="15" x="222" y="88.2969"/><rect fill="#F1F1F1" height="2" style="stroke:#181818;stroke-width:0.5;" width="4" x="220" y="90.2969"/><rect fill="#F1F1F1" height="2" style="stroke:#181818;stroke-width:0.5;" width="4" x="220" y="94.2969"/><text fill="#000000" font-family="sans-serif" font-size="14" lengthAdjust="spacing" textLength="106" x="111" y="116.292">Template Files</text></g><!--MD5=[df6a39b053164d23cc3ecae9c3484a54]
entity CLI--><g id="elem_CLI"><rect fill="#F1F1F1" height="62.5938" rx="2.5" ry="2.5" style="stroke:#181818;stroke-width:0.5;" width="120" x="109" y="227.7969"/><rect fill="#F1F1F1" height="10" style="stroke:#181818;stroke-width:0.5;" width="15" x="209" y="232.7969"/><rect fill="#F1F1F1" height="2" style="stroke:#181818;stroke-width:0.5;" width="4" x="207" y="234.7969"/><rect fill="#F1F1F1" height="2" style="stroke:#181818;stroke-width:0.5;" width="4" x="207" y="238.7969"/><text fill="#000000" font-family="sans-serif" font-size="14" lengthAdjust="spacing" textLength="80" x="124" y="260.792">Web Client</text><text fill="#000000" font-family="sans-serif" font-size="14" lengthAdjust="spacing" textLength="79" x="124" y="277.0889">Applcation</text></g><!--MD5=[bd5f618b12816bd4b75416c1e6e531a6]
entity REST--><g id="elem_REST"><path d="M144.023,400.785 C148.4023,395.036 153.0642,394.6332 157.4979,400.7231 C160.6171,394.4677 165.6808,393.0371 170.6902,398.6162 C175.5096,392.5147 180.4973,393.5863 183.2472,400.5979 C186.3559,394.6903 191.2555,394.3692 194.7796,400.1895 C201.2746,402.5538 203.5338,406.1958 198.5307,412.1624 C204.9933,414.2891 205.2866,418.6738 201.6094,423.5434 C206.5747,427.9523 204.9315,433.5642 198.798,435.3245 C204.2688,439.8381 202.1099,444.9848 196.0109,446.6516 C193.1718,453.6946 186.9257,455.1744 181.9523,448.9057 C179.0842,455.2181 175.4638,455.8584 170.4909,451.0811 C166.15,457.0795 159.319,456.7138 156.4345,449.5284 C151.5765,453.5201 147.3838,453.7405 144.6422,447.1664 C137.9779,445.1292 137.659,440.5945 142.1689,436.0672 C135.9502,435.3659 133.5723,429.6953 137.2554,424.7101 C132.5757,418.9878 133.3988,413.7813 141.4247,412.3421 C137.0594,407.4758 138.1625,403.3523 144.023,400.785 " fill="#F1F1F1" style="stroke:#181818;stroke-width:0.5;"/><text fill="#000000" font-family="sans-serif" font-size="14" lengthAdjust="spacing" textLength="37" x="150.5" y="419.792">REST</text><text fill="#000000" font-family="sans-serif" font-size="14" lengthAdjust="spacing" textLength="23" x="150.5" y="436.0889">API</text></g><!--MD5=[08af8945a84acfe1eabc0963aa87c412]
entity web--><g id="elem_web"><rect fill="#F1F1F1" height="46.2969" rx="2.5" ry="2.5" style="stroke:#181818;stroke-width:0.5;" width="143" x="574.5" y="400.2969"/><rect fill="#F1F1F1" height="10" style="stroke:#181818;stroke-width:0.5;" width="15" x="697.5" y="405.2969"/><rect fill="#F1F1F1" height="2" style="stroke:#181818;stroke-width:0.5;" width="4" x="695.5" y="407.2969"/><rect fill="#F1F1F1" height="2" style="stroke:#181818;stroke-width:0.5;" width="4" x="695.5" y="411.2969"/><text fill="#000000" font-family="sans-serif" font-size="14" lengthAdjust="spacing" textLength="103" x="589.5" y="433.292">Web Interface</text></g><!--MD5=[9eb86c2b3d925a16ba1bdada40016c70]
entity Internet--><g id="elem_Internet"><path d="M602.2338,589.4496 C604.5526,584.2355 609.1846,582.527 613.513,587.1438 C617.5226,582.2901 620.8719,582.2988 624.1866,587.8563 C626.8515,581.6248 630.1909,580.3268 635.362,585.3727 C638.3653,580.1562 642.5808,580.115 646.1517,584.7511 C650.5882,579.0049 656.4382,579.8013 659.4632,586.287 C662.3052,581.8685 666.4068,581.9113 669.3812,586.135 C673.068,580.2287 678.3706,581.7461 680.9823,587.2301 C685.0212,583.2428 689.0879,582.5233 691.7986,588.6504 C699.3111,591.486 699.8428,596.8472 695.1289,602.6014 C702.7566,609.0931 700.6067,614.96 692.3341,618.6897 C689.1621,623.529 685.5011,623.5264 681.9111,619.163 C678.7829,624.7986 675.0059,625.8414 670.2166,621.0209 C667.6439,627.7883 663.1807,626.9255 658.8371,622.8856 C656.1955,628.2608 652.1252,629.3667 647.8276,624.7012 C644.4526,630.7842 639.1282,629.6804 636.1549,624.2925 C630.9968,629.0777 626.159,628.3197 624.0084,621.219 C620.5416,626.1682 617.2229,625.3604 613.8349,621.1318 C608.9482,625.0345 604.2685,624.5673 602.4193,617.8629 C593.6577,616.4293 592.1691,609.7665 596.8167,603.2069 C592.887,597.0354 593.4068,590.598 602.2338,589.4496 " fill="#F1F1F1" style="stroke:#181818;stroke-width:0.5;"/><text fill="#000000" font-family="sans-serif" font-size="14" lengthAdjust="spacing" textLength="77" x="607.5" y="607.292">Web query</text></g><!--MD5=[838e418b95e63823e5619ec403d19c8e]
entity Stored Program Data--><g id="elem_Stored Program Data"><rect fill="#F1F1F1" height="46.2969" rx="2.5" ry="2.5" style="stroke:#181818;stroke-width:0.5;" width="192" x="227" y="1009.2969"/><rect fill="#F1F1F1" height="10" style="stroke:#181818;stroke-width:0.5;" width="15" x="399" y="1014.2969"/><rect fill="#F1F1F1" height="2" style="stroke:#181818;stroke-width:0.5;" width="4" x="397" y="1016.2969"/><rect fill="#F1F1F1" height="2" style="stroke:#181818;stroke-width:0.5;" width="4" x="397" y="1020.2969"/><text fill="#000000" font-family="sans-serif" font-size="14" lengthAdjust="spacing" textLength="152" x="242" y="1042.292">Stored Program Data</text></g><!--MD5=[64592d875885c54b0a4030fb481eabc2]
entity Stored Templates--><g id="elem_Stored Templates"><rect fill="#F1F1F1" height="46.2969" rx="2.5" ry="2.5" style="stroke:#181818;stroke-width:0.5;" width="170" x="22" y="1009.2969"/><rect fill="#F1F1F1" height="10" style="stroke:#181818;stroke-width:0.5;" width="15" x="172" y="1014.2969"/><rect fill="#F1F1F1" height="2" style="stroke:#181818;stroke-width:0.5;" width="4" x="170" y="1016.2969"/><rect fill="#F1F1F1" height="2" style="stroke:#181818;stroke-width:0.5;" width="4" x="170" y="1020.2969"/><text fill="#000000" font-family="sans-serif" font-size="14" lengthAdjust="spacing" textLength="130" x="37" y="1042.292">Stored Templates</text></g><!--MD5=[c82d4dac6874566d025e1349302c6d1f]
entity Formatter--><g id="elem_Formatter"><rect fill="#F1F1F1" height="46.2969" rx="2.5" ry="2.5" style="stroke:#181818;stroke-width:0.5;" width="114" x="475" y="821.2969"/><rect fill="#F1F1F1" height="10" style="stroke:#181818;stroke-width:0.5;" width="15" x="569" y="826.2969"/><rect fill="#F1F1F1" height="2" style="stroke:#181818;stroke-width:0.5;" width="4" x="567" y="828.2969"/><rect fill="#F1F1F1" height="2" style="stroke:#181818;stroke-width:0.5;" width="4" x="567" y="832.2969"/><text fill="#000000" font-family="sans-serif" font-size="14" lengthAdjust="spacing" textLength="74" x="490" y="854.292">Formatter</text></g><!--MD5=[a433091ca46c3aaf017910f1abd4ad5f]
entity ImageGenerator--><g id="elem_ImageGenerator"><rect fill="#F1F1F1" height="46.2969" rx="2.5" ry="2.5" style="stroke:#181818;stroke-width:0.5;" width="158" x="624" y="821.2969"/><rect fill="#F1F1F1" height="10" style="stroke:#181818;stroke-width:0.5;" width="15" x="762" y="826.2969"/><rect fill="#F1F1F1" height="2" style="stroke:#181818;stroke-width:0.5;" width="4" x="760" y="828.2969"/><rect fill="#F1F1F1" height="2" style="stroke:#181818;stroke-width:0.5;" width="4" x="760" y="832.2969"/><text fill="#000000" font-family="sans-serif" font-size="14" lengthAdjust="spacing" textLength="118" x="639" y="854.292">ImageGenerator</text></g><!--MD5=[c01552aeb07e95759ece564214fd0bdc]
entity Compiler--><g id="elem_Compiler"><rect fill="#F1F1F1" height="46.2969" rx="2.5" ry="2.5" style="stroke:#181818;stroke-width:0.5;" width="106" x="538" y="897.2969"/><rect fill="#F1F1F1" height="10" style="stroke:#181818;stroke-width:0.5;" width="15" x="624" y="902.2969"/><rect fill="#F1F1F1" height="2" style="stroke:#181818;stroke-width:0.5;" width="4" x="622" y="904.2969"/><rect fill="#F1F1F1" height="2" style="stroke:#181818;stroke-width:0.5;" width="4" x="622" y="908.2969"/><text fill="#000000" font-family="sans-serif" font-size="14" lengthAdjust="spacing" textLength="66" x="553" y="930.292">Compiler</text></g><!--MD5=[77b6810f9f1d8e17e1346401c10c77dc]
entity Executor--><g id="elem_Executor"><rect fill="#F1F1F1" height="46.2969" rx="2.5" ry="2.5" style="stroke:#181818;stroke-width:0.5;" width="104" x="539" y="1009.2969"/><rect fill="#F1F1F1" height="10" style="stroke:#181818;stroke-width:0.5;" width="15" x="623" y="1014.2969"/><rect fill="#F1F1F1" height="2" style="stroke:#181818;stroke-width:0.5;" width="4" x="621" y="1016.2969"/><rect fill="#F1F1F1" height="2" style="stroke:#181818;stroke-width:0.5;" width="4" x="621" y="1020.2969"/><text fill="#000000" font-family="sans-serif" font-size="14" lengthAdjust="spacing" textLength="64" x="554" y="1042.292">Executor</text></g><!--MD5=[e64da02f5594507ded6bc1fdafafe102]
entity Teacher--><g id="elem_Teacher"><ellipse cx="320" cy="229.7969" fill="#F1F1F1" rx="8" ry="8" style="stroke:#181818;stroke-width:0.5;"/><path d="M320,237.7969 L320,264.7969 M307,245.7969 L333,245.7969 M320,264.7969 L307,279.7969 M320,264.7969 L333,279.7969 " fill="none" style="stroke:#181818;stroke-width:0.5;"/><text fill="#000000" font-family="sans-serif" font-size="14" lengthAdjust="spacing" textLength="58" x="291" y="294.292">Teacher</text></g><!--MD5=[494c489cc4328319247ec2e1625e02a3]
entity Student--><g id="elem_Student"><ellipse cx="510" cy="393.7969" fill="#F1F1F1" rx="8" ry="8" style="stroke:#181818;stroke-width:0.5;"/><path d="M510,401.7969 L510,428.7969 M497,409.7969 L523,409.7969 M510,428.7969 L497,443.7969 M510,428.7969 L523,443.7969 " fill="none" style="stroke:#181818;stroke-width:0.5;"/><text fill="#000000" font-family="sans-serif" font-size="14" lengthAdjust="spacing" textLength="58" x="481" y="458.292">Student</text></g><!--MD5=[29793d73f52f3c88940af93faa50b42c]
reverse link CLI to Teacher--><g id="link_CLI_Teacher"><path d="M234.114,259.2969 C253.879,259.2969 274.613,259.2969 290.756,259.2969 " fill="none" id="CLI-backto-Teacher" style="stroke:#181818;stroke-width:1.0;"/><polygon fill="#181818" points="229.113,259.2969,238.113,263.2969,234.113,259.2969,238.113,255.2969,229.113,259.2969" style="stroke:#181818;stroke-width:1.0;"/><text fill="#000000" font-family="sans-serif" font-size="13" lengthAdjust="spacing" textLength="25" x="247.5" y="252.3638">Run</text></g><!--MD5=[dfb805362a7be20c27abdd4af38369a6]
link TF to CLI--><g id="link_TF_CLI"><path d="M169,129.5779 C169,153.9819 169,193.4819 169,222.2969 " fill="none" id="TF-to-CLI" style="stroke:#181818;stroke-width:1.0;"/><polygon fill="#181818" points="169,227.5469,173,218.5469,169,222.5469,165,218.5469,169,227.5469" style="stroke:#181818;stroke-width:1.0;"/><text fill="#000000" font-family="sans-serif" font-size="13" lengthAdjust="spacing" textLength="60" x="170" y="172.3638">Compiled</text><text fill="#000000" font-family="sans-serif" font-size="13" lengthAdjust="spacing" textLength="26" x="187" y="187.4966">files</text></g><!--MD5=[fc52d5e82a15a85d576e8ad1f244eb96]
link CLI to REST--><g id="link_CLI_REST"><path d="M169,291.1489 C169,318.2859 169,357.8039 169,386.3599 " fill="none" id="CLI-to-REST" style="stroke:#181818;stroke-width:1.0;"/><polygon fill="#181818" points="169,391.5599,173,382.5599,169,386.5599,165,382.5599,169,391.5599" style="stroke:#181818;stroke-width:1.0;"/><text fill="#000000" font-family="sans-serif" font-size="13" lengthAdjust="spacing" textLength="130" x="170" y="340.3638">Serialized templates</text></g><!--MD5=[a5d48b4177b746960f00a38971339a9a]
link REST to TML--><g id="link_REST_TML"><path d="M169,455.1279 C169,488.6469 169,541.7159 169,573.8459 " fill="none" id="REST-to-TML" style="stroke:#181818;stroke-width:1.0;"/><polygon fill="#181818" points="169,579.2039,173,570.2039,169,574.2039,165,570.2039,169,579.2039" style="stroke:#181818;stroke-width:1.0;"/></g><!--MD5=[da878f9b9461113f37ac5375b56a40cf]
link Student to web--><g id="link_Student_web"><path d="M539.219,423.2969 C549.164,423.2969 559.11,423.2969 569.055,423.2969 " fill="none" id="Student-to-web" style="stroke:#181818;stroke-width:1.0;"/><polygon fill="#181818" points="574.256,423.2969,565.256,419.2969,569.256,423.2969,565.256,427.2969,574.256,423.2969" style="stroke:#181818;stroke-width:1.0;"/></g><!--MD5=[0e18e08728df7af15fb972055807513f]
link web to Internet--><g id="link_web_Internet"><path d="M646,446.3559 C646,478.6399 646,538.7199 646,573.8269 " fill="none" id="web-to-Internet" style="stroke:#181818;stroke-width:1.0;"/><polygon fill="#181818" points="646,579.2379,650,570.2379,646,574.2379,642,570.2379,646,579.2379" style="stroke:#181818;stroke-width:1.0;"/><text fill="#000000" font-family="sans-serif" font-size="13" lengthAdjust="spacing" textLength="123" x="647" y="504.3638">Image/text request</text><text fill="#000000" font-family="sans-serif" font-size="13" lengthAdjust="spacing" textLength="89" x="664" y="519.4966">Answer check</text></g><!--MD5=[b93196e0bd61233458b7cd8da76b2c84]
reverse link PGL to Internet--><g id="link_PGL_Internet"><path d="M562.389,602.2969 C572.335,602.2969 582.281,602.2969 592.227,602.2969 " fill="none" id="PGL-backto-Internet" style="stroke:#181818;stroke-width:1.0;"/><polygon fill="#181818" points="557.188,602.2969,566.188,606.2969,562.188,602.2969,566.188,598.2969,557.188,602.2969" style="stroke:#181818;stroke-width:1.0;"/></g><!--MD5=[fd57caccd24a3ccecb06b05c61645162]
link PGL to PDA--><g id="link_PGL_PDA"><path d="M430.422,625.3079 C420.251,643.1089 405.99,668.0639 395.768,685.9529 " fill="none" id="PGL-PDA" style="stroke:#181818;stroke-width:1.0;"/></g><!--MD5=[a9f64237bfd5567ce9d52109b1a20bb6]
link PGL to TDA--><g id="link_PGL_TDA"><path d="M381.787,625.3079 C332.035,643.1989 262.181,668.3179 212.383,686.2239 " fill="none" id="PGL-TDA" style="stroke:#181818;stroke-width:1.0;"/></g><!--MD5=[6e2ccaf38ab263e72c8ce516d0225acf]
link PDA to Stored Program Data--><g id="link_PDA_Stored Program Data"><path d="M378.876,732.3609 C367.915,791.0019 338.147,950.2609 327.153,1009.0789 " fill="none" id="PDA-Stored Program Data" style="stroke:#181818;stroke-width:1.0;stroke-dasharray:7.0,7.0;"/></g><!--MD5=[48f417c3781ee4c5dce58c55515caeff]
link TML to TDA--><g id="link_TML_TDA"><path d="M165.227,625.3079 C162.175,643.1089 157.897,668.0639 154.83,685.9529 " fill="none" id="TML-TDA" style="stroke:#181818;stroke-width:1.0;"/></g><!--MD5=[84ff165edbf7a4c6e6f2fa2b949a566c]
link TDA to Stored Templates--><g id="link_TDA_Stored Templates"><path d="M147.976,732.3609 C139.938,791.0019 118.108,950.2609 110.045,1009.0789 " fill="none" id="TDA-Stored Templates" style="stroke:#181818;stroke-width:1.0;stroke-dasharray:7.0,7.0;"/></g><!--MD5=[17831ff38e19c5c61763639537cc1818]
link PGL to Formatter--><g id="link_PGL_Formatter"><path d="M460.086,625.3799 C471.765,641.4679 486.749,664.2209 496,686.2969 C514.187,729.6949 524.019,783.8709 528.622,815.9079 " fill="none" id="PGL-to-Formatter" style="stroke:#181818;stroke-width:1.0;"/><polygon fill="#181818" points="529.369,821.2389,532.0832,811.7714,528.6761,816.2871,524.1604,812.88,529.369,821.2389" style="stroke:#181818;stroke-width:1.0;"/></g><!--MD5=[2760e86c8c574fc9a993e7b8683981be]
link Formatter to ImageGenerator--><g id="link_Formatter_ImageGenerator"><path d="M589.111,844.2969 C598.961,844.2969 608.811,844.2969 618.661,844.2969 " fill="none" id="Formatter-to-ImageGenerator" style="stroke:#181818;stroke-width:1.0;"/><polygon fill="#181818" points="623.812,844.2969,614.812,840.2969,618.812,844.2969,614.812,848.2969,623.812,844.2969" style="stroke:#181818;stroke-width:1.0;"/></g><!--MD5=[51b14093fdfe97e19cef86ce5c8e5b05]
reverse link PGL to ImageGenerator--><g id="link_PGL_ImageGenerator"><path d="M475.181,628.5889 C485.494,636.9189 496.864,646.3449 507,655.2969 C572.381,713.0399 645.623,785.5059 681.221,821.2599 " fill="none" id="PGL-backto-ImageGenerator" style="stroke:#181818;stroke-width:1.0;"/><polygon fill="#181818" points="471.136,625.3329,475.6408,634.0911,475.0317,628.4671,480.6557,627.858,471.136,625.3329" style="stroke:#181818;stroke-width:1.0;"/></g><!--MD5=[7194e2d248158e04da1574f08f6cea1e]
link Formatter to Compiler--><g id="link_Formatter_Compiler"><path d="M549.702,867.4989 C556.119,875.5479 563.428,884.7159 570.096,893.0779 " fill="none" id="Formatter-to-Compiler" style="stroke:#181818;stroke-width:1.0;stroke-dasharray:7.0,7.0;"/><polygon fill="#181818" points="573.311,897.1099,570.8284,887.5791,570.1941,893.2002,564.573,892.566,573.311,897.1099" style="stroke:#181818;stroke-width:1.0;"/></g><!--MD5=[04399b7b63ee257ab77080ba8c5a0b7d]
link Formatter to Executor--><g id="link_Formatter_Executor"><path d="M530.048,867.6379 C528.999,887.8649 529.23,918.2389 537,943.2969 C543.95,965.7089 557.912,988.2104 569.898,1004.8496 " fill="none" id="Formatter-to-Executor" style="stroke:#181818;stroke-width:1.0;stroke-dasharray:7.0,7.0;"/><polygon fill="#181818" points="572.897,1008.9499,570.8122,999.3242,569.9452,1004.9142,564.3552,1004.0471,572.897,1008.9499" style="stroke:#181818;stroke-width:1.0;"/></g><!--MD5=[e7e13d345b9ec6938a7cb3b131c91055]
link Compiler to Executor--><g id="link_Compiler_Executor"><path d="M591,943.5569 C591,961.0019 591,985.3549 591,1003.9792 " fill="none" id="Compiler-to-Executor" style="stroke:#181818;stroke-width:1.0;stroke-dasharray:7.0,7.0;"/><polygon fill="#181818" points="591,1009.0699,595,1000.0699,591,1004.0699,587,1000.0699,591,1009.0699" style="stroke:#181818;stroke-width:1.0;"/></g><!--MD5=[f7b65599b1ff12fe24cfd5e3d252dde7]
link Executor to PGL--><g id="link_Executor_PGL"><path d="M633.534,1009.2037 C710.444,966.2379 859.397,867.3679 800,773.2969 C748.075,691.0599 644.281,647.7789 561.932,625.5239 " fill="none" id="Executor-to-PGL" style="stroke:#181818;stroke-width:1.0;"/><polygon fill="#181818" points="557.037,624.2189,564.7039,630.4009,561.8685,625.506,566.7634,622.6706,557.037,624.2189" style="stroke:#181818;stroke-width:1.0;"/></g><!--MD5=[98382e404faa244b66963f3d24f9b8fb]
@startuml
title Program Generator - Component Diagram

:Teacher:
:Student: as Student

node "Web-server" {
    [Program Generation Logic] as PGL
    [Template Management Logic] as TML
    [Program Data Access] as PDA  
    [Template Data Access] as TDA
} 

node "Template Manager" {
  [Template Files] as TF
  [Web Client\nApplcation] as CLI
}

cloud "REST\nAPI" as REST {
}

Teacher -left-> CLI: "Run"
TF -down-> CLI: "Compiled\nfiles"
CLI -down-> REST: "Serialized templates"
REST - -> TML

node "Client side" {
     [Web Interface] as web
}

cloud "Web query" as Internet {
}
 


database "Database" {
    [Stored Program Data]
    [Stored Templates]
}

Student -right-> web
web -down-> Internet: "Image/text request\nAnswer check"
Internet -left- -> PGL
PGL - - PDA
PGL - - TDA
PDA ... [Stored Program Data]
TML - - TDA
TDA ... [Stored Templates]


node "Program Runner" as ProgramRunner {
 [Formatter]
 [ImageGenerator]
 [Compiler] 
 [Executor]
}

PGL - - -> Formatter
Formatter -> ImageGenerator
ImageGenerator -up- - -> PGL
Formatter .> Compiler
Formatter ..> Executor
Compiler .> Executor
Executor - - -> PGL
@enduml

PlantUML version 1.2022.5(Sat Apr 30 10:55:52 UTC 2022)
(GPL source distribution)
Java Runtime: Java(TM) SE Runtime Environment
JVM: Java HotSpot(TM) 64-Bit Server VM
Default Encoding: UTF-8
Language: en
Country: US
--></g></svg>